<svg width="19" height="19" viewBox="0 0 19 19" fill="none" xmlns="http://www.w3.org/2000/svg">
<path d="M9.5 0C4.25948 0 0 4.25948 0 9.5C0 14.7405 4.25948 19 9.5 19C14.7405 19 19 14.7405 19 9.5C19 4.25948 14.7405 0 9.5 0ZM9.5 17.3856C7.00392 17.3856 4.78105 16.2183 3.33431 14.399C4.34119 13.0818 5.74546 12.1239 7.33922 11.667C6.76474 11.3028 6.2916 10.7994 5.96377 10.2034C5.63594 9.60749 5.46405 8.93834 5.46405 8.25817C5.46405 7.18777 5.88927 6.16121 6.64615 5.40432C7.40304 4.64744 8.4296 4.22222 9.5 4.22222C10.5704 4.22222 11.597 4.64744 12.3538 5.40432C13.1107 6.16121 13.5359 7.18777 13.5359 8.25817C13.5364 8.93929 13.3648 9.60948 13.037 10.2065C12.7091 10.8035 12.2358 11.3081 11.6608 11.6732C13.2547 12.1297 14.6591 13.0877 15.6657 14.4052C14.9291 15.3346 13.9919 16.0854 12.9242 16.6015C11.8565 17.1176 10.6859 17.3857 9.5 17.3856Z" fill="black"/>
</svg>
